<svg data-v-fde0c5aa="" xmlns="http://www.w3.org/2000/svg" viewBox="0 0 300 300" class="iconAbove"><!----><defs data-v-fde0c5aa=""><!----></defs><rect data-v-fde0c5aa="" fill="transparent" x="0" y="0" width="300px" height="300px" class="logo-background-square"></rect><defs data-v-fde0c5aa=""><linearGradient data-v-fde0c5aa="" gradientTransform="rotate(25)" id="a16aa419-a90d-4993-9b7f-d9cb6b276304" x1="0%" y1="0%" x2="100%" y2="0%"><stop data-v-fde0c5aa="" offset="0%" stop-color="#B3B3B3" stop-opacity="1"></stop><stop data-v-fde0c5aa="" offset="100%" stop-color="#4B9885" stop-opacity="1"></stop></linearGradient></defs><g data-v-fde0c5aa="" id="eef44280-51c4-4935-8492-36d4e9d11c80" fill="url(#a16aa419-a90d-4993-9b7f-d9cb6b276304)" transform="matrix(6.292835235595703,0,0,6.292835235595703,5.233330782774403,193.48473518706828)"><path d="M2.41 4.55L2.41 1.33L3.67 1.33L4.48 2.14L4.48 3.67L3.74 4.55ZM2.41 5.84L3.86 5.84L4.76 6.72L4.76 8.40L3.95 9.21L2.41 9.21ZM0.38 1.33L1.65 1.33L1.65 1.43L1.12 1.75L1.12 10.50L4.48 10.50L6.05 8.93L6.05 6.13L5.00 5.10L5.77 4.17L5.77 1.61L4.20 0.03L0.38 0.03ZM13.13 1.46L11.55-0.13L9.55-0.13L7.97 1.46L7.97 8.86L9.53 10.54L11.55 10.54L13.13 8.86ZM11.00 9.28L10.08 9.28L9.23 8.37L9.23 1.97L10.07 1.13L11.02 1.13L11.86 1.97L11.86 8.37ZM16.14 10.50L17.42 10.50L17.42 1.15L19.28 1.15L19.28 0L14.29 0L14.29 1.15L16.14 1.15ZM21.90 1.30L23.18 1.30L24.04 2.16L24.04 4.76L23.17 5.70L21.90 5.70ZM21.90 6.97L23.00 6.97L24.64 10.50L26.04 10.50L24.18 6.48L25.31 5.26L25.31 1.64L23.70 0.01L20.62 0.01L20.62 10.50L21.90 10.50ZM28.50 4.68L28.50 1.29L31.53 1.29L31.53 0.01C29.83 0.01 28.92 0.01 27.23 0.01L27.23 10.50L31.72 10.50L31.72 9.23L28.50 9.23L28.50 5.95L31.04 5.95L31.04 4.68ZM36.89 3.09L38.16 3.09L38.16 1.51L36.64-0.08L34.65-0.08L33.12 1.51L33.12 8.88L34.64 10.57L36.64 10.57L38.16 8.88L38.16 7.22L36.89 7.24L36.89 8.40L36.08 9.30L35.20 9.30L34.40 8.40L34.40 2.02L35.18 1.19L36.09 1.19L36.89 2.02ZM41.23 0.04L39.96 0.04L39.96 10.50L41.23 10.50L41.23 5.53L41.90 5.53L44.23 10.50L45.63 10.50L43.01 4.90L45.30 0.04L43.90 0.04L41.90 4.26L41.23 4.26Z"></path></g><defs data-v-fde0c5aa=""><linearGradient data-v-fde0c5aa="" gradientTransform="rotate(25)" id="76c070a3-a74f-43be-9e3d-3064320f2986" x1="0%" y1="0%" x2="100%" y2="0%"><stop data-v-fde0c5aa="" offset="0%" stop-color="#4B9885" stop-opacity="1"></stop><stop data-v-fde0c5aa="" offset="100%" stop-color="#B3B3B3" stop-opacity="1"></stop></linearGradient></defs><g data-v-fde0c5aa="" id="603ff752-518f-4c58-9be9-09bc843d48e9" stroke="none" fill="url(#76c070a3-a74f-43be-9e3d-3064320f2986)" transform="matrix(1.416053295135498,0,0,1.416053295135498,79.05572913119218,36.45986539961487)"><switch><g><path d="M93.5 40.3L84.9 39c-1.1-2.6-1.4-3.3-2.5-6l5.2-7c1.4-1.9 1.2-4.5-.4-6.1l-7.2-7c-1.6-1.6-4.3-1.9-6.1-.4l-7 5.2c-2.6-1.1-3.3-1.4-6-2.5l-1.2-8.7c-.3-2.3-2.3-4-4.7-4H45c-2.3 0-4.3 1.7-4.7 4l-1.2 8.7c-2.6 1.1-3.3 1.4-6 2.5l-7-5.2c-1.9-1.4-4.5-1.2-6.1.4L12.9 20c-1.6 1.6-1.8 4.3-.4 6.1l5.2 7c-1.1 2.6-1.4 3.3-2.5 6l-8.6 1.3c-2.3.3-4 2.3-4 4.6v10c0 2.4 1.7 4.3 4 4.7l8.6 1.3c1.1 2.6 1.4 3.3 2.5 6l-5.2 7c-1.4 1.9-1.2 4.5.4 6.1l7.1 7.1c1.6 1.6 4.3 1.9 6.1.4l7-5.2c2.6 1.1 3.3 1.4 6 2.5l1.2 8.7c.3 2.3 2.3 4 4.7 4h10c2.3 0 4.3-1.7 4.7-4l1.2-8.7c2.5-1 3.3-1.3 5.6-2.3l-7.4-8c-2.9 1.1-6 1.6-9.1 1.6-14.4 0-26.2-11.7-26.2-26.2 0-14.4 11.7-26.1 26.2-26.1S76.2 35.6 76.2 50c0 3.2-.5 6.2-1.6 9.2l8 7.4c1-2.3 1.3-3.1 2.3-5.6l8.7-1.3c2.3-.3 4-2.3 4-4.7V45c-.1-2.4-1.8-4.4-4.1-4.7z"></path><path d="M66.1 60.7c2-3.1 3.2-6.7 3.2-10.7 0-10.7-8.6-19.3-19.3-19.3S30.7 39.4 30.7 50c0 10.7 8.6 19.3 19.3 19.3 3.9 0 7.6-1.2 10.7-3.2l18.2 19.7.4.4c2 1.8 5.1 1.6 6.9-.4 1.8-2 1.6-5.1-.4-6.9L66.1 60.7zm-5.7-8.1c-1.4 0-2.6-1.2-2.6-2.6 0-4.3-3.5-7.8-7.8-7.8-1.4 0-2.6-1.2-2.6-2.6S48.6 37 50 37c7.2 0 13 5.8 13 13 0 1.4-1.1 2.6-2.6 2.6z"></path></g></switch></g><!----></svg>