<svg data-v-423bf9ae="" xmlns="http://www.w3.org/2000/svg" viewBox="0 0 253.73832228006953 60" class="font"><!----><!----><!----><g data-v-423bf9ae="" id="4a55ea38-8a60-4333-af0c-e289e5fbdccd" fill="white" transform="matrix(5.607476711273193,0,0,5.607476711273193,-2.1308412551879883,0.7289727330207825)"><path d="M2.41 4.55L2.41 1.33L3.67 1.33L4.48 2.14L4.48 3.67L3.74 4.55ZM2.41 5.84L3.86 5.84L4.76 6.72L4.76 8.40L3.95 9.21L2.41 9.21ZM0.38 1.33L1.65 1.33L1.65 1.43L1.12 1.75L1.12 10.50L4.48 10.50L6.05 8.93L6.05 6.13L5.00 5.10L5.77 4.17L5.77 1.61L4.20 0.03L0.38 0.03ZM13.13 1.46L11.55-0.13L9.55-0.13L7.97 1.46L7.97 8.86L9.53 10.54L11.55 10.54L13.13 8.86ZM11.00 9.28L10.08 9.28L9.23 8.37L9.23 1.97L10.07 1.13L11.02 1.13L11.86 1.97L11.86 8.37ZM16.14 10.50L17.42 10.50L17.42 1.15L19.28 1.15L19.28 0L14.29 0L14.29 1.15L16.14 1.15ZM21.90 1.30L23.18 1.30L24.04 2.16L24.04 4.76L23.17 5.70L21.90 5.70ZM21.90 6.97L23.00 6.97L24.64 10.50L26.04 10.50L24.18 6.48L25.31 5.26L25.31 1.64L23.70 0.01L20.62 0.01L20.62 10.50L21.90 10.50ZM28.50 4.68L28.50 1.29L31.53 1.29L31.53 0.01C29.83 0.01 28.92 0.01 27.23 0.01L27.23 10.50L31.72 10.50L31.72 9.23L28.50 9.23L28.50 5.95L31.04 5.95L31.04 4.68ZM36.89 3.09L38.16 3.09L38.16 1.51L36.64-0.08L34.65-0.08L33.12 1.51L33.12 8.88L34.64 10.57L36.64 10.57L38.16 8.88L38.16 7.22L36.89 7.24L36.89 8.40L36.08 9.30L35.20 9.30L34.40 8.40L34.40 2.02L35.18 1.19L36.09 1.19L36.89 2.02ZM41.23 0.04L39.96 0.04L39.96 10.50L41.23 10.50L41.23 5.53L41.90 5.53L44.23 10.50L45.63 10.50L43.01 4.90L45.30 0.04L43.90 0.04L41.90 4.26L41.23 4.26Z"></path></g><!----><!----></svg>